<?xml version="1.0" encoding="utf-8"?>
<!-- Generator: Adobe Illustrator 22.0.0, SVG Export Plug-In . SVG Version: 6.00 Build 0)  -->
<svg version="1.1" id="door_x5F_west_x5F_east" xmlns="http://www.w3.org/2000/svg" xmlns:xlink="http://www.w3.org/1999/xlink"
	 x="0px" y="0px" viewBox="0 0 479.9954834 438.8007813" style="enable-background:new 0 0 479.9954834 438.8007813;"
	 xml:space="preserve">
<style type="text/css">
	.st0{fill:#A0A0A0;}
	.st1{fill:#B3B3B3;}
	.st2{fill:#BCBCBC;}
	.st3{fill:#8E8E8E;}
	.st4{fill:#999999;}
	.st5{fill:#808080;}
</style>
<polygon class="st0" points="316.8389587,209.6836395 320.8391418,211.9905548 320.8391418,124.2308578 392.8371887,165.801651 
	392.8371887,253.5559845 396.836853,255.8680267 396.836853,163.4919891 316.8389587,117.3027496 "/>
<polygon class="st1" points="316.8389587,117.3027496 319.9924622,115.4820862 399.9903564,161.6713257 396.836853,163.4919891 "/>
<polygon class="st2" points="399.9903564,161.6713257 396.836853,163.4919891 396.836853,255.8680267 399.9903564,254.0473633 "/>
<polygon class="st3" points="320.8391418,211.9905548 323.9904785,210.1711273 323.9904785,126.0504074 320.8391418,124.2308578 "/>
<polygon class="st4" points="323.9904785,210.1711273 323.9904785,126.0504074 392.8371887,165.801651 392.8371887,249.9176941 "/>
<polygon class="st5" points="360.506958,231.2491913 360.506958,147.135498 359.4779358,146.5413513 359.4782715,230.6551208 "/>
<polygon class="st5" points="347.9995422,190.0963287 351.9978638,192.4071655 351.9978638,201.6447754 347.9995422,199.3363342 "/>
<polygon class="st5" points="367.9912109,201.6505585 371.989563,203.9614105 371.989563,213.1990051 367.9912109,210.890564 "/>
</svg>
