<?xml version="1.0" encoding="utf-8"?>
<!-- Generator: Adobe Illustrator 22.0.0, SVG Export Plug-In . SVG Version: 6.00 Build 0)  -->
<svg version="1.1" id="door_x5F_north_x5F_south" xmlns="http://www.w3.org/2000/svg" xmlns:xlink="http://www.w3.org/1999/xlink"
	 x="0px" y="0px" viewBox="0 0 479.9954834 438.8007813" style="enable-background:new 0 0 479.9954834 438.8007813;"
	 xml:space="preserve">
<style type="text/css">
	.st0{fill:#BCBCBC;}
	.st1{fill:#B3B3B3;}
	.st2{fill:#A0A0A0;}
	.st3{fill:#8E8E8E;}
	.st4{fill:#999999;}
	.st5{fill:#808080;}
</style>
<polygon class="st0" points="163.1459198,209.6836395 159.1457672,211.9905548 159.1457672,124.2308578 87.1477203,165.801651 
	87.1477203,253.5559845 83.1480255,255.8680267 83.1480255,163.4919891 163.1459198,117.3027496 "/>
<polygon class="st1" points="163.1459198,117.3027496 159.9924469,115.4820862 79.9945526,161.6713257 83.1480255,163.4919891 "/>
<polygon class="st2" points="79.9945526,161.6713257 83.1480255,163.4919891 83.1480255,255.8680267 79.9945526,254.0473633 "/>
<polygon class="st3" points="159.1457672,211.9905548 155.9944153,210.1711273 155.9944153,126.0504074 159.1457672,124.2308578 "/>
<polygon class="st4" points="155.9944153,210.1711273 155.9944153,126.0504074 87.1477203,165.801651 87.1477203,249.9176941 "/>
<polygon class="st5" points="119.4779434,231.2491913 119.4779358,147.135498 120.506958,146.5413513 120.5066376,230.6551208 "/>
<polygon class="st5" points="131.9853516,190.0963287 127.9870148,192.4071655 127.9870148,201.6447754 131.9853516,199.3363342 "/>
<polygon class="st5" points="111.9936752,201.6505585 107.9953384,203.9614105 107.9953384,213.1990051 111.9936752,210.890564 "/>
</svg>
