<?xml version="1.0" encoding="utf-8"?>
<!-- Generator: Adobe Illustrator 22.0.0, SVG Export Plug-In . SVG Version: 6.00 Build 0)  -->
<svg version="1.1" id="Warehouse" xmlns="http://www.w3.org/2000/svg" xmlns:xlink="http://www.w3.org/1999/xlink" x="0px" y="0px"
	 viewBox="0 0 480 438.8" style="enable-background:new 0 0 480 438.8;" xml:space="preserve">
<style type="text/css">
	.st0{fill:#7DBBC9;}
	.st1{fill:#35606C;}
	.st2{fill:#497A86;}
	.st3{fill:#548794;}
	.st4{fill:#3F6D79;}
	.st5{fill:#AA9383;}
	.st6{fill:#C1A791;}
	.st7{fill:#CEB399;}
	.st8{fill:#73AEBC;}
</style>
<path class="st0" d="M247,67.3v100.5l139.3,80.4V147.7L247,67.3z M249.7,71.9l134,77.4v94.5l-134-77.4V71.9z"/>
<polygon class="st1" points="232.2,176.4 232.2,81.9 249.7,92 249.7,166.4 "/>
<polygon class="st2" points="249.7,163.4 232.2,173.4 366.2,250.7 366.2,230.6 "/>
<polygon class="st3" points="366.2,250.7 366.2,253.8 232.2,176.4 232.2,173.4 "/>
<polygon class="st4" points="232.2,179.4 234.8,177.9 232.2,176.4 "/>
<polygon class="st5" points="253.9,167 239,158.4 239.1,175.6 253.9,184.2 "/>
<polygon class="st6" points="253.9,167 268.8,158.4 253.9,149.8 239,158.4 "/>
<polygon class="st7" points="268.8,158.4 253.9,167 253.9,184.2 268.8,175.6 "/>
<polygon class="st5" points="269.3,175.9 254.5,167.3 254.5,184.5 269.3,193.1 "/>
<polygon class="st6" points="269.3,175.9 284.2,167.3 269.3,158.7 254.5,167.3 "/>
<polygon class="st7" points="284.2,167.3 269.3,175.9 269.3,193.1 284.2,184.5 "/>
<polygon class="st5" points="284.9,184.9 270,176.3 270,193.5 284.9,202.1 "/>
<polygon class="st6" points="284.9,184.9 299.8,176.3 284.9,167.7 270,176.3 "/>
<polygon class="st7" points="299.8,176.3 284.9,184.9 284.9,202.1 299.8,193.5 "/>
<polygon class="st5" points="300.3,193.8 285.4,185.2 285.4,202.4 300.3,211 "/>
<polygon class="st6" points="300.3,193.8 315.2,185.2 300.3,176.6 285.4,185.2 "/>
<polygon class="st7" points="315.2,185.2 300.3,193.8 300.3,211 315.2,202.4 "/>
<polygon class="st5" points="346.9,220.7 332,212.1 332,229.3 346.9,237.9 "/>
<polygon class="st6" points="346.9,220.7 361.8,212.1 346.9,203.5 332,212.1 "/>
<polygon class="st7" points="361.8,212.1 346.9,220.7 346.9,237.9 361.8,229.3 "/>
<polygon class="st5" points="362.3,229.6 347.4,221 347.4,238.2 362.3,246.8 "/>
<polygon class="st6" points="362.3,229.6 377.2,221 362.3,212.4 347.4,221 "/>
<polygon class="st7" points="377.2,221 362.3,229.6 362.3,246.8 377.2,238.2 "/>
<polygon class="st2" points="249.7,131.9 232.2,141.9 366.2,219.3 366.2,199.2 "/>
<polygon class="st3" points="366.2,219.3 366.2,222.3 232.2,144.9 232.2,141.9 "/>
<polygon class="st5" points="253.9,135.4 239,126.8 239.1,144 253.9,152.6 "/>
<polygon class="st6" points="253.9,135.4 268.8,126.8 253.9,118.2 239,126.8 "/>
<polygon class="st7" points="268.8,126.8 253.9,135.4 253.9,152.6 268.8,144 "/>
<polygon class="st5" points="269.3,144.3 254.5,135.7 254.5,152.9 269.3,161.5 "/>
<polygon class="st6" points="269.3,144.3 284.2,135.7 269.3,127.1 254.5,135.7 "/>
<polygon class="st7" points="284.2,135.7 269.3,144.3 269.3,161.5 284.2,152.9 "/>
<polygon class="st5" points="284.9,153.3 270,144.7 270,161.9 284.9,170.5 "/>
<polygon class="st6" points="284.9,153.3 299.8,144.7 284.9,136.1 270,144.7 "/>
<polygon class="st7" points="299.8,144.7 284.9,153.3 284.9,170.5 299.8,161.9 "/>
<polygon class="st5" points="315.9,171.2 301,162.6 301,179.8 315.9,188.4 "/>
<polygon class="st6" points="315.9,171.2 330.8,162.6 315.9,154 301,162.6 "/>
<polygon class="st7" points="330.8,162.6 315.9,171.2 315.9,188.4 330.8,179.8 "/>
<polygon class="st5" points="331.3,180.1 316.4,171.5 316.4,188.7 331.3,197.3 "/>
<polygon class="st6" points="331.3,180.1 346.2,171.5 331.3,162.9 316.4,171.5 "/>
<polygon class="st7" points="346.2,171.5 331.3,180.1 331.3,197.3 346.2,188.7 "/>
<polygon class="st5" points="346.9,189.1 332,180.5 332,197.7 346.9,206.3 "/>
<polygon class="st6" points="346.9,189.1 361.8,180.5 346.9,171.9 332,180.5 "/>
<polygon class="st7" points="361.8,180.5 346.9,189.1 346.9,206.3 361.8,197.7 "/>
<polygon class="st5" points="362.3,198 347.4,189.4 347.4,206.6 362.3,215.2 "/>
<polygon class="st6" points="362.3,198 377.2,189.4 362.3,180.8 347.4,189.4 "/>
<polygon class="st7" points="377.2,189.4 362.3,198 362.3,215.2 377.2,206.6 "/>
<polygon class="st2" points="249.7,100.4 232.2,110.4 366.2,187.8 366.2,167.7 "/>
<polygon class="st3" points="366.2,187.8 366.2,190.8 232.2,113.4 232.2,110.4 "/>
<polygon class="st5" points="284.9,122 270,113.4 270,130.6 284.9,139.2 "/>
<polygon class="st6" points="284.9,122 299.8,113.4 284.9,104.8 270,113.4 "/>
<polygon class="st7" points="299.8,113.4 284.9,122 284.9,139.2 299.8,130.6 "/>
<polygon class="st5" points="300.3,130.9 285.4,122.3 285.4,139.5 300.3,148.1 "/>
<polygon class="st6" points="300.3,130.9 315.2,122.3 300.3,113.7 285.4,122.3 "/>
<polygon class="st7" points="315.2,122.3 300.3,130.9 300.3,148.1 315.2,139.5 "/>
<polygon class="st5" points="315.9,139.9 301,131.3 301,148.5 315.9,157.1 "/>
<polygon class="st6" points="315.9,139.9 330.8,131.3 315.9,122.7 301,131.3 "/>
<polygon class="st7" points="330.8,131.3 315.9,139.9 315.9,157.1 330.8,148.5 "/>
<polygon class="st5" points="346.9,157.8 332,149.2 332,166.4 346.9,175 "/>
<polygon class="st6" points="346.9,157.8 361.8,149.2 346.9,140.6 332,149.2 "/>
<polygon class="st7" points="361.8,149.2 346.9,157.8 346.9,175 361.8,166.4 "/>
<polygon class="st8" points="386.2,147.7 247,67.3 229.6,77.4 368.8,157.8 "/>
<polygon class="st0" points="386.2,248.2 386.2,147.7 368.8,157.8 368.8,258.3 "/>
<path class="st3" d="M368.8,258.3V157.8L229.6,77.4v100.5l2.6,1.5V81.9l134,77.4v97.5L368.8,258.3z"/>
<path class="st0" d="M212.2,87.4v100.5l139.3,80.4V167.8L212.2,87.4z M214.9,92l134,77.4v94.5l-134-77.4V92z"/>
<polygon class="st1" points="197.4,196.5 197.4,102 214.9,112.1 214.9,186.5 "/>
<polygon class="st2" points="214.9,183.5 197.4,193.5 331.4,270.8 331.4,250.7 "/>
<polygon class="st3" points="331.4,270.8 331.4,273.9 197.4,196.5 197.4,193.5 "/>
<polygon class="st4" points="197.4,199.5 200,198 197.4,196.5 "/>
<polygon class="st5" points="219.1,187.1 204.2,178.5 204.2,195.7 219.1,204.3 "/>
<polygon class="st6" points="219.1,187.1 234,178.5 219.1,169.9 204.2,178.5 "/>
<polygon class="st7" points="234,178.5 219.1,187.1 219.1,204.3 234,195.7 "/>
<polygon class="st5" points="234.5,196 219.6,187.4 219.6,204.6 234.5,213.2 "/>
<polygon class="st6" points="234.5,196 249.4,187.4 234.5,178.8 219.6,187.4 "/>
<polygon class="st7" points="249.4,187.4 234.5,196 234.5,213.2 249.4,204.6 "/>
<polygon class="st5" points="250.1,205 235.2,196.4 235.2,213.6 250.1,222.2 "/>
<polygon class="st6" points="250.1,205 265,196.4 250.1,187.8 235.2,196.4 "/>
<polygon class="st7" points="265,196.4 250.1,205 250.1,222.2 265,213.6 "/>
<polygon class="st5" points="265.5,213.9 250.6,205.3 250.6,222.5 265.5,231.1 "/>
<polygon class="st6" points="265.5,213.9 280.4,205.3 265.5,196.7 250.6,205.3 "/>
<polygon class="st7" points="280.4,205.3 265.5,213.9 265.5,231.1 280.4,222.5 "/>
<polygon class="st5" points="312.1,240.8 297.2,232.2 297.2,249.4 312.1,258 "/>
<polygon class="st6" points="312.1,240.8 327,232.2 312.1,223.6 297.2,232.2 "/>
<polygon class="st7" points="327,232.2 312.1,240.8 312.1,258 327,249.4 "/>
<polygon class="st5" points="327.5,249.7 312.6,241.1 312.6,258.3 327.5,266.9 "/>
<polygon class="st6" points="327.5,249.7 342.4,241.1 327.5,232.5 312.6,241.1 "/>
<polygon class="st7" points="342.4,241.1 327.5,249.7 327.5,266.9 342.4,258.3 "/>
<polygon class="st2" points="214.9,152 197.4,162 331.4,239.4 331.4,219.3 "/>
<polygon class="st3" points="331.4,239.4 331.4,242.4 197.4,165 197.4,162 "/>
<polygon class="st5" points="219.1,155.5 204.2,146.9 204.2,164.1 219.1,172.7 "/>
<polygon class="st6" points="219.1,155.5 234,146.9 219.1,138.3 204.2,146.9 "/>
<polygon class="st7" points="234,146.9 219.1,155.5 219.1,172.7 234,164.1 "/>
<polygon class="st5" points="234.5,164.4 219.6,155.8 219.6,173 234.5,181.6 "/>
<polygon class="st6" points="234.5,164.4 249.4,155.8 234.5,147.2 219.6,155.8 "/>
<polygon class="st7" points="249.4,155.8 234.5,164.4 234.5,181.6 249.4,173 "/>
<polygon class="st5" points="250.1,173.4 235.2,164.8 235.2,182 250.1,190.6 "/>
<polygon class="st6" points="250.1,173.4 265,164.8 250.1,156.2 235.2,164.8 "/>
<polygon class="st7" points="265,164.8 250.1,173.4 250.1,190.6 265,182 "/>
<polygon class="st5" points="281.1,191.3 266.2,182.7 266.2,199.9 281.1,208.5 "/>
<polygon class="st6" points="281.1,191.3 296,182.7 281.1,174.1 266.2,182.7 "/>
<polygon class="st7" points="296,182.7 281.1,191.3 281.1,208.5 296,199.9 "/>
<polygon class="st5" points="296.5,200.2 281.6,191.6 281.6,208.8 296.5,217.4 "/>
<polygon class="st6" points="296.5,200.2 311.4,191.6 296.5,183 281.6,191.6 "/>
<polygon class="st7" points="311.4,191.6 296.5,200.2 296.5,217.4 311.4,208.8 "/>
<polygon class="st5" points="312.1,209.2 297.2,200.6 297.2,217.8 312.1,226.4 "/>
<polygon class="st6" points="312.1,209.2 327,200.6 312.1,192 297.2,200.6 "/>
<polygon class="st7" points="327,200.6 312.1,209.2 312.1,226.4 327,217.8 "/>
<polygon class="st5" points="327.5,218.1 312.6,209.5 312.6,226.7 327.5,235.3 "/>
<polygon class="st6" points="327.5,218.1 342.4,209.5 327.5,200.9 312.6,209.5 "/>
<polygon class="st7" points="342.4,209.5 327.5,218.1 327.5,235.3 342.4,226.7 "/>
<polygon class="st2" points="214.9,120.5 197.4,130.5 331.4,207.9 331.4,187.8 "/>
<polygon class="st3" points="331.4,207.9 331.4,210.9 197.4,133.5 197.4,130.5 "/>
<polygon class="st5" points="219.1,124.2 204.2,115.6 204.2,132.8 219.1,141.4 "/>
<polygon class="st6" points="219.1,124.2 234,115.6 219.1,107 204.2,115.6 "/>
<polygon class="st7" points="234,115.6 219.1,124.2 219.1,141.4 234,132.8 "/>
<polygon class="st5" points="250.1,142.1 235.2,133.5 235.2,150.7 250.1,159.3 "/>
<polygon class="st6" points="250.1,142.1 265,133.5 250.1,124.9 235.2,133.5 "/>
<polygon class="st7" points="265,133.5 250.1,142.1 250.1,159.3 265,150.7 "/>
<polygon class="st5" points="265.5,151 250.6,142.4 250.6,159.6 265.5,168.2 "/>
<polygon class="st6" points="265.5,151 280.4,142.4 265.5,133.8 250.6,142.4 "/>
<polygon class="st7" points="280.4,142.4 265.5,151 265.5,168.2 280.4,159.6 "/>
<polygon class="st7" points="296,151.4 281.1,160 281.1,177.2 296,168.6 "/>
<polygon class="st5" points="296.5,168.9 281.6,160.3 281.6,177.5 296.5,186.1 "/>
<polygon class="st6" points="296.5,168.9 311.4,160.3 296.5,151.7 281.6,160.3 "/>
<polygon class="st7" points="311.4,160.3 296.5,168.9 296.5,186.1 311.4,177.5 "/>
<polygon class="st5" points="312.1,177.9 297.2,169.3 297.2,186.5 312.1,195.1 "/>
<polygon class="st6" points="312.1,177.9 327,169.3 312.1,160.7 297.2,169.3 "/>
<polygon class="st7" points="327,169.3 312.1,177.9 312.1,195.1 327,186.5 "/>
<polygon class="st8" points="351.4,167.8 212.2,87.4 194.7,97.5 334,177.9 "/>
<polygon class="st0" points="351.4,268.3 351.4,167.8 334,177.9 334,278.4 "/>
<path class="st3" d="M334,278.4V177.9L194.7,97.5V198l2.6,1.5V102l134,77.4v97.5L334,278.4z"/>
<path class="st0" d="M177.3,107.5V208l139.3,80.4V187.9L177.3,107.5z M180.1,112.1l134,77.4V284l-134-77.4V112.1z"/>
<polygon class="st1" points="162.5,216.6 162.5,122.1 180.1,132.2 180.1,206.6 "/>
<polygon class="st2" points="180.1,203.6 162.5,213.6 296.6,290.9 296.6,270.8 "/>
<polygon class="st3" points="296.6,290.9 296.6,294 162.5,216.6 162.5,213.6 "/>
<polygon class="st4" points="162.5,219.6 165.2,218.1 162.5,216.6 "/>
<polygon class="st5" points="184.3,207.2 169.4,198.6 169.4,215.8 184.3,224.4 "/>
<polygon class="st6" points="184.3,207.2 199.2,198.6 184.3,190 169.4,198.6 "/>
<polygon class="st7" points="199.2,198.6 184.3,207.2 184.3,224.4 199.2,215.8 "/>
<polygon class="st5" points="199.7,216.1 184.8,207.5 184.8,224.7 199.7,233.3 "/>
<polygon class="st6" points="199.7,216.1 214.6,207.5 199.7,198.9 184.8,207.5 "/>
<polygon class="st7" points="214.6,207.5 199.7,216.1 199.7,233.3 214.6,224.7 "/>
<polygon class="st5" points="215.3,225.1 200.4,216.5 200.4,233.7 215.3,242.3 "/>
<polygon class="st6" points="215.3,225.1 230.2,216.5 215.3,207.9 200.4,216.5 "/>
<polygon class="st7" points="230.2,216.5 215.3,225.1 215.3,242.3 230.2,233.7 "/>
<polygon class="st5" points="230.7,234 215.8,225.4 215.8,242.6 230.7,251.2 "/>
<polygon class="st6" points="230.7,234 245.6,225.4 230.7,216.8 215.8,225.4 "/>
<polygon class="st7" points="245.6,225.4 230.7,234 230.7,251.2 245.6,242.6 "/>
<polygon class="st5" points="277.3,260.9 262.4,252.3 262.4,269.5 277.3,278.1 "/>
<polygon class="st6" points="277.3,260.9 292.2,252.3 277.3,243.7 262.4,252.3 "/>
<polygon class="st7" points="292.2,252.3 277.3,260.9 277.3,278.1 292.2,269.5 "/>
<polygon class="st2" points="180.1,172.1 162.5,182.1 296.6,259.5 296.6,239.4 "/>
<polygon class="st3" points="296.6,259.5 296.6,262.5 162.5,185.1 162.5,182.1 "/>
<polygon class="st5" points="184.3,175.6 169.4,167 169.4,184.2 184.3,192.8 "/>
<polygon class="st6" points="184.3,175.6 199.2,167 184.3,158.4 169.4,167 "/>
<polygon class="st7" points="199.2,167 184.3,175.6 184.3,192.8 199.2,184.2 "/>
<polygon class="st5" points="199.7,184.5 184.8,175.9 184.8,193.1 199.7,201.7 "/>
<polygon class="st6" points="199.7,184.5 214.6,175.9 199.7,167.3 184.8,175.9 "/>
<polygon class="st7" points="214.6,175.9 199.7,184.5 199.7,201.7 214.6,193.1 "/>
<polygon class="st5" points="215.3,193.5 200.4,184.9 200.4,202.1 215.3,210.7 "/>
<polygon class="st6" points="215.3,193.5 230.2,184.9 215.3,176.3 200.4,184.9 "/>
<polygon class="st7" points="230.2,184.9 215.3,193.5 215.3,210.7 230.2,202.1 "/>
<polygon class="st5" points="246.3,211.4 231.4,202.8 231.4,220 246.3,228.6 "/>
<polygon class="st6" points="246.3,211.4 261.2,202.8 246.3,194.2 231.4,202.8 "/>
<polygon class="st7" points="261.2,202.8 246.3,211.4 246.3,228.6 261.2,220 "/>
<polygon class="st5" points="261.7,220.3 246.8,211.7 246.8,228.9 261.7,237.5 "/>
<polygon class="st6" points="261.7,220.3 276.6,211.7 261.7,203.1 246.8,211.7 "/>
<polygon class="st7" points="276.6,211.7 261.7,220.3 261.7,237.5 276.6,228.9 "/>
<polygon class="st5" points="277.3,229.3 262.4,220.7 262.4,237.9 277.3,246.5 "/>
<polygon class="st6" points="277.3,229.3 292.2,220.7 277.3,212.1 262.4,220.7 "/>
<polygon class="st7" points="292.2,220.7 277.3,229.3 277.3,246.5 292.2,237.9 "/>
<polygon class="st5" points="292.7,238.2 277.8,229.6 277.8,246.8 292.7,255.4 "/>
<polygon class="st6" points="292.7,238.2 307.6,229.6 292.7,221 277.8,229.6 "/>
<polygon class="st7" points="307.6,229.6 292.7,238.2 292.7,255.4 307.6,246.8 "/>
<polygon class="st2" points="180.1,140.6 162.5,150.6 296.6,228 296.6,207.9 "/>
<polygon class="st3" points="296.6,228 296.6,231 162.5,153.6 162.5,150.6 "/>
<polygon class="st5" points="184.3,144.3 169.4,135.7 169.4,152.9 184.3,161.5 "/>
<polygon class="st6" points="184.3,144.3 199.2,135.7 184.3,127.1 169.4,135.7 "/>
<polygon class="st7" points="199.2,135.7 184.3,144.3 184.3,161.5 199.2,152.9 "/>
<polygon class="st5" points="199.7,153.2 184.8,144.6 184.8,161.8 199.7,170.4 "/>
<polygon class="st6" points="199.7,153.2 214.6,144.6 199.7,136 184.8,144.6 "/>
<polygon class="st7" points="214.6,144.6 199.7,153.2 199.7,170.4 214.6,161.8 "/>
<polygon class="st5" points="215.3,162.2 200.4,153.6 200.4,170.8 215.3,179.4 "/>
<polygon class="st6" points="215.3,162.2 230.2,153.6 215.3,145 200.4,153.6 "/>
<polygon class="st7" points="230.2,153.6 215.3,162.2 215.3,179.4 230.2,170.8 "/>
<polygon class="st5" points="246.3,180.1 231.4,171.5 231.4,188.7 246.3,197.3 "/>
<polygon class="st6" points="246.3,180.1 261.2,171.5 246.3,162.9 231.4,171.5 "/>
<polygon class="st7" points="261.2,171.5 246.3,180.1 246.3,197.3 261.2,188.7 "/>
<polygon class="st5" points="261.7,189 246.8,180.4 246.8,197.6 261.7,206.2 "/>
<polygon class="st6" points="261.7,189 276.6,180.4 261.7,171.8 246.8,180.4 "/>
<polygon class="st7" points="276.6,180.4 261.7,189 261.7,206.2 276.6,197.6 "/>
<polygon class="st8" points="316.6,187.9 177.3,107.5 159.9,117.6 299.2,198 "/>
<polygon class="st0" points="316.6,288.4 316.6,187.9 299.2,198 299.2,298.5 "/>
<path class="st3" d="M299.2,298.5V198l-139.3-80.4v100.5l2.6,1.5v-97.5l134,77.4V297L299.2,298.5z"/>
<path class="st0" d="M142.5,127.6v100.5l139.3,80.4V208L142.5,127.6z M145.2,132.2l134,77.4v94.5l-134-77.4V132.2z"/>
<polygon class="st1" points="127.7,236.7 127.7,142.2 145.2,152.3 145.2,226.7 "/>
<polygon class="st2" points="145.2,223.7 127.7,233.7 261.8,311 261.8,290.9 "/>
<polygon class="st3" points="261.8,311 261.8,314.1 127.7,236.7 127.7,233.7 "/>
<polygon class="st4" points="127.7,239.7 130.3,238.2 127.7,236.7 "/>
<polygon class="st5" points="149.5,227.3 134.6,218.7 134.6,235.9 149.5,244.5 "/>
<polygon class="st6" points="149.5,227.3 164.4,218.7 149.5,210.1 134.6,218.7 "/>
<polygon class="st7" points="164.4,218.7 149.5,227.3 149.5,244.5 164.4,235.9 "/>
<polygon class="st5" points="164.9,236.2 150,227.6 150,244.8 164.9,253.4 "/>
<polygon class="st6" points="164.9,236.2 179.8,227.6 164.9,219 150,227.6 "/>
<polygon class="st7" points="179.8,227.6 164.9,236.2 164.9,253.4 179.8,244.8 "/>
<polygon class="st5" points="180.5,245.2 165.6,236.6 165.6,253.8 180.5,262.4 "/>
<polygon class="st6" points="180.5,245.2 195.4,236.6 180.5,228 165.6,236.6 "/>
<polygon class="st7" points="195.4,236.6 180.5,245.2 180.5,262.4 195.4,253.8 "/>
<polygon class="st5" points="195.9,254.1 181,245.5 181,262.7 195.9,271.3 "/>
<polygon class="st6" points="195.9,254.1 210.8,245.5 195.9,236.9 181,245.5 "/>
<polygon class="st7" points="210.8,245.5 195.9,254.1 195.9,271.3 210.8,262.7 "/>
<polygon class="st5" points="242.5,281 227.6,272.4 227.6,289.6 242.5,298.2 "/>
<polygon class="st6" points="242.5,281 257.4,272.4 242.5,263.8 227.6,272.4 "/>
<polygon class="st7" points="257.4,272.4 242.5,281 242.5,298.2 257.4,289.6 "/>
<polygon class="st5" points="257.9,289.9 243,281.3 243,298.5 257.9,307.1 "/>
<polygon class="st6" points="257.9,289.9 272.8,281.3 257.9,272.7 243,281.3 "/>
<polygon class="st7" points="272.8,281.3 257.9,289.9 257.9,307.1 272.8,298.5 "/>
<polygon class="st2" points="145.2,192.2 127.7,202.2 261.8,279.6 261.8,259.5 "/>
<polygon class="st3" points="261.8,279.6 261.8,282.6 127.7,205.2 127.7,202.2 "/>
<polygon class="st5" points="149.5,195.7 134.6,187.1 134.6,204.3 149.5,212.9 "/>
<polygon class="st6" points="149.5,195.7 164.4,187.1 149.5,178.5 134.6,187.1 "/>
<polygon class="st7" points="164.4,187.1 149.5,195.7 149.5,212.9 164.4,204.3 "/>
<polygon class="st5" points="164.9,204.6 150,196 150,213.2 164.9,221.8 "/>
<polygon class="st6" points="164.9,204.6 179.8,196 164.9,187.4 150,196 "/>
<polygon class="st7" points="179.8,196 164.9,204.6 164.9,221.8 179.8,213.2 "/>
<polygon class="st5" points="180.5,213.6 165.6,205 165.6,222.2 180.5,230.8 "/>
<polygon class="st6" points="180.5,213.6 195.4,205 180.5,196.4 165.6,205 "/>
<polygon class="st7" points="195.4,205 180.5,213.6 180.5,230.8 195.4,222.2 "/>
<polygon class="st5" points="211.5,231.5 196.6,222.9 196.6,240.1 211.5,248.7 "/>
<polygon class="st6" points="211.5,231.5 226.4,222.9 211.5,214.3 196.6,222.9 "/>
<polygon class="st7" points="226.4,222.9 211.5,231.5 211.5,248.7 226.4,240.1 "/>
<polygon class="st5" points="226.9,240.4 212,231.8 212,249 226.9,257.6 "/>
<polygon class="st6" points="226.9,240.4 241.8,231.8 226.9,223.2 212,231.8 "/>
<polygon class="st7" points="241.8,231.8 226.9,240.4 226.9,257.6 241.8,249 "/>
<polygon class="st5" points="242.5,249.4 227.6,240.8 227.6,258 242.5,266.6 "/>
<polygon class="st6" points="242.5,249.4 257.4,240.8 242.5,232.2 227.6,240.8 "/>
<polygon class="st7" points="257.4,240.8 242.5,249.4 242.5,266.6 257.4,258 "/>
<polygon class="st2" points="145.2,160.7 127.7,170.7 261.8,248.1 261.8,228 "/>
<polygon class="st3" points="261.8,248.1 261.8,251.1 127.7,173.7 127.7,170.7 "/>
<polygon class="st5" points="149.5,164.4 134.6,155.8 134.6,173 149.5,181.6 "/>
<polygon class="st6" points="149.5,164.4 164.4,155.8 149.5,147.2 134.6,155.8 "/>
<polygon class="st7" points="164.4,155.8 149.5,164.4 149.5,181.6 164.4,173 "/>
<polygon class="st5" points="195.9,191.2 181,182.6 181,199.8 195.9,208.4 "/>
<polygon class="st6" points="195.9,191.2 210.8,182.6 195.9,174 181,182.6 "/>
<polygon class="st7" points="210.8,182.6 195.9,191.2 195.9,208.4 210.8,199.8 "/>
<polygon class="st5" points="211.5,200.2 196.6,191.6 196.6,208.8 211.5,217.4 "/>
<polygon class="st6" points="211.5,200.2 226.4,191.6 211.5,183 196.6,191.6 "/>
<polygon class="st7" points="226.4,191.6 211.5,200.2 211.5,217.4 226.4,208.8 "/>
<polygon class="st5" points="242.5,218.1 227.6,209.5 227.6,226.7 242.5,235.3 "/>
<polygon class="st6" points="242.5,218.1 257.4,209.5 242.5,200.9 227.6,209.5 "/>
<polygon class="st7" points="257.4,209.5 242.5,218.1 242.5,235.3 257.4,226.7 "/>
<polygon class="st8" points="281.8,208 142.5,127.6 125.1,137.7 264.4,218.1 "/>
<polygon class="st0" points="281.8,308.5 281.8,208 264.4,218.1 264.4,318.6 "/>
<path class="st3" d="M264.4,318.6V218.1l-139.3-80.4v100.5l2.6,1.5v-97.5l134,77.4v97.5L264.4,318.6z"/>
<path class="st0" d="M107.7,147.7v100.5L247,328.6V228.1L107.7,147.7z M110.4,152.3l134,77.4v94.5l-134-77.4V152.3z"/>
<polygon class="st1" points="92.9,256.8 92.9,162.3 110.4,172.4 110.4,246.8 "/>
<polygon class="st2" points="110.4,243.8 92.9,253.8 226.9,331.1 226.9,311 "/>
<polygon class="st3" points="226.9,331.1 226.9,334.2 92.9,256.8 92.9,253.8 "/>
<polygon class="st4" points="92.9,259.8 95.5,258.3 92.9,256.8 "/>
<polygon class="st5" points="114.7,247.4 99.8,238.8 99.8,256 114.7,264.6 "/>
<polygon class="st6" points="114.7,247.4 129.6,238.8 114.7,230.2 99.8,238.8 "/>
<polygon class="st7" points="129.6,238.8 114.7,247.4 114.7,264.6 129.6,256 "/>
<polygon class="st5" points="130.1,256.3 115.2,247.7 115.2,264.9 130.1,273.5 "/>
<polygon class="st6" points="130.1,256.3 145,247.7 130.1,239.1 115.2,247.7 "/>
<polygon class="st7" points="145,247.7 130.1,256.3 130.1,273.5 145,264.9 "/>
<polygon class="st5" points="145.7,265.3 130.8,256.7 130.8,273.9 145.7,282.5 "/>
<polygon class="st6" points="145.7,265.3 160.6,256.7 145.7,248.1 130.8,256.7 "/>
<polygon class="st7" points="160.6,256.7 145.7,265.3 145.7,282.5 160.6,273.9 "/>
<polygon class="st5" points="161.1,274.2 146.2,265.6 146.2,282.8 161.1,291.4 "/>
<polygon class="st6" points="161.1,274.2 176,265.6 161.1,257 146.2,265.6 "/>
<polygon class="st7" points="176,265.6 161.1,274.2 161.1,291.4 176,282.8 "/>
<polygon class="st5" points="207.6,301.1 192.8,292.5 192.8,309.7 207.6,318.3 "/>
<polygon class="st6" points="207.6,301.1 222.5,292.5 207.6,283.9 192.8,292.5 "/>
<polygon class="st7" points="222.5,292.5 207.6,301.1 207.6,318.3 222.5,309.7 "/>
<polygon class="st5" points="223,310 208.2,301.4 208.2,318.6 223.1,327.2 "/>
<polygon class="st6" points="223,310 237.9,301.4 223.1,292.8 208.2,301.4 "/>
<polygon class="st7" points="237.9,301.4 223,310 223.1,327.2 237.9,318.6 "/>
<polygon class="st2" points="110.4,212.3 92.9,222.3 226.9,299.7 226.9,279.6 "/>
<polygon class="st3" points="226.9,299.7 226.9,302.7 92.9,225.3 92.9,222.3 "/>
<polygon class="st5" points="114.7,215.8 99.8,207.2 99.8,224.4 114.7,233 "/>
<polygon class="st6" points="114.7,215.8 129.6,207.2 114.7,198.6 99.8,207.2 "/>
<polygon class="st7" points="129.6,207.2 114.7,215.8 114.7,233 129.6,224.4 "/>
<polygon class="st5" points="130.1,224.7 115.2,216.1 115.2,233.3 130.1,241.9 "/>
<polygon class="st6" points="130.1,224.7 145,216.1 130.1,207.5 115.2,216.1 "/>
<polygon class="st7" points="145,216.1 130.1,224.7 130.1,241.9 145,233.3 "/>
<polygon class="st5" points="145.7,233.7 130.8,225.1 130.8,242.3 145.7,250.9 "/>
<polygon class="st6" points="145.7,233.7 160.6,225.1 145.7,216.5 130.8,225.1 "/>
<polygon class="st7" points="160.6,225.1 145.7,233.7 145.7,250.9 160.6,242.3 "/>
<polygon class="st5" points="176.7,251.6 161.8,243 161.8,260.2 176.7,268.8 "/>
<polygon class="st6" points="176.7,251.6 191.6,243 176.7,234.4 161.8,243 "/>
<polygon class="st7" points="191.6,243 176.7,251.6 176.7,268.8 191.6,260.2 "/>
<polygon class="st5" points="192.1,260.5 177.2,251.9 177.2,269.1 192.1,277.7 "/>
<polygon class="st6" points="192.1,260.5 207,251.9 192.1,243.3 177.2,251.9 "/>
<polygon class="st7" points="207,251.9 192.1,260.5 192.1,277.7 207,269.1 "/>
<polygon class="st5" points="207.6,269.5 192.8,260.9 192.8,278.1 207.6,286.7 "/>
<polygon class="st6" points="207.6,269.5 222.5,260.9 207.6,252.3 192.8,260.9 "/>
<polygon class="st7" points="222.5,260.9 207.6,269.5 207.6,286.7 222.5,278.1 "/>
<polygon class="st5" points="223,278.4 208.2,269.8 208.2,287 223.1,295.6 "/>
<polygon class="st6" points="223,278.4 237.9,269.8 223.1,261.2 208.2,269.8 "/>
<polygon class="st7" points="237.9,269.8 223,278.4 223.1,295.6 237.9,287 "/>
<polygon class="st2" points="110.4,180.8 92.9,190.8 226.9,268.2 226.9,248.1 "/>
<polygon class="st3" points="226.9,268.2 226.9,271.2 92.9,193.8 92.9,190.8 "/>
<polygon class="st5" points="114.7,184.5 99.8,175.9 99.8,193.1 114.7,201.7 "/>
<polygon class="st6" points="114.7,184.5 129.6,175.9 114.7,167.3 99.8,175.9 "/>
<polygon class="st7" points="129.6,175.9 114.7,184.5 114.7,201.7 129.6,193.1 "/>
<polygon class="st5" points="145.7,202.4 130.8,193.8 130.8,211 145.7,219.6 "/>
<polygon class="st6" points="145.7,202.4 160.6,193.8 145.7,185.2 130.8,193.8 "/>
<polygon class="st7" points="160.6,193.8 145.7,202.4 145.7,219.6 160.6,211 "/>
<polygon class="st5" points="161.1,211.3 146.2,202.7 146.2,219.9 161.1,228.5 "/>
<polygon class="st6" points="161.1,211.3 176,202.7 161.1,194.1 146.2,202.7 "/>
<polygon class="st7" points="176,202.7 161.1,211.3 161.1,228.5 176,219.9 "/>
<polygon class="st5" points="176.7,220.3 161.8,211.7 161.8,228.9 176.7,237.5 "/>
<polygon class="st6" points="176.7,220.3 191.6,211.7 176.7,203.1 161.8,211.7 "/>
<polygon class="st7" points="191.6,211.7 176.7,220.3 176.7,237.5 191.6,228.9 "/>
<polygon class="st5" points="192.1,229.2 177.2,220.6 177.2,237.8 192.1,246.4 "/>
<polygon class="st6" points="192.1,229.2 207,220.6 192.1,212 177.2,220.6 "/>
<polygon class="st7" points="207,220.6 192.1,229.2 192.1,246.4 207,237.8 "/>
<polygon class="st5" points="207.6,238.2 192.8,229.6 192.8,246.8 207.6,255.4 "/>
<polygon class="st6" points="207.6,238.2 222.5,229.6 207.6,221 192.8,229.6 "/>
<polygon class="st7" points="222.5,229.6 207.6,238.2 207.6,255.4 222.5,246.8 "/>
<polygon class="st8" points="247,228.1 107.7,147.7 90.3,157.8 229.6,238.2 "/>
<polygon class="st0" points="247,328.6 247,228.1 229.6,238.2 229.6,338.7 "/>
<path class="st3" d="M229.6,338.7V238.2L90.3,157.8v100.5l2.6,1.5v-97.5l134,77.4v97.5L229.6,338.7z"/>
</svg>
